<?xml version="1.0" encoding="UTF-8"?>
<svg width="123.04" height="36.451" version="1.1" viewBox="0 0 492.38 36.451" xmlns="http://www.w3.org/2000/svg"><path d="m155.28-10.299a23 23 0 0 0-5.79-0.93c-11.34 0-19.21 6.37-19.21 21.76 0 7.4 1.74 13.77 7.06 17.24-3.35 2.78-7.17 7.52-7.29 10.53-0.12 3.01 2.55 5.09 6.94 6.36-4.86 3.24-8.67 7.87-8.67 13.43 0 6 3 13.19 18.62 13.19 15.39 0 22.11-9 22.11-19 0-9.14-6.95-12.5-14.35-13.54-8.68-1.16-14.58-1.5-14.58-3.47 0-1.62 1.5-3.59 3-5.21a23.29 23.29 0 0 0 5.2 0.47c13.43 0 18.75-8 18.75-20.25 0-5.79-1.74-10.19-4.51-13.08a20.61 20.61 0 0 0 4.28 0.58c2 0 3.24-1.16 3.24-3.7a9.11 9.11 0 0 0-0.93-4.4zm-11.11 56.24a13.39 13.39 0 0 0 2.2 0.23c10.18 0.69 13.19 2.2 13.19 7.41 0 4-3.59 8.9-11.81 8.9-7.86 0-9.72-2.89-9.72-6.59 0-3.7 2.78-7.52 6.14-9.95zm4.63-22.57c-7.18 0-8.57-5.2-8.57-13.53 0-10.19 3.94-14.12 8.91-14.12 5.56 0 8.45 3.59 8.45 12 0 10.11-2.66 15.65-8.79 15.65zm51.35-34.6c-10.77 0-18.52 1.51-20.26 2.78a3.57 3.57 0 0 0-1 3c0 0.81 0.12 4 1.28 6 3.58-1.62 11.1-2.66 16.31-2.66 3.59 0 6.14 1.39 6.14 6.82v9.72c-2.32-1.15-5.91-1.5-8.8-1.5-7.4 0-15 2.89-15 19 0 17.58 8.1 18.28 16.54 18.16 7.53 0 13-1.85 16.09-3.82 0 0 0.7-16.43 0.7-36.68v-6.7c-0.08-10.41-4.48-14.12-12-14.12zm2.08 51.61c-1 1.16-3.94 1.86-6.25 1.86-4.51 0-7.41-0.47-7.41-10.42 0-10.18 3.94-11.8 8.57-11.8a12.68 12.68 0 0 1 5.44 1c0 8.37-0.35 19.36-0.35 19.36zm58.06-30.31c0-16-1.51-21.3-15.51-21.3-6.25 0-14.58 1.74-19.09 3.82v55.78c9.6 0 9.37 0 9.37-2v-47.18a17.3 17.3 0 0 1 8.68-2.2c6.13 0 6.83 3.47 6.83 12.61v38.77c9.83 0 9.72 0 9.72-2zm38.27-42.47v23.49a13.87 13.87 0 0 0-8.22-2.32c-9.95 0-17.82 9.84-17.82 32.75 0 25.11 7.87 28.58 18.86 28.58 7.18 0 12.62-1.16 16.55-3.47v-83.31c-7.64 0-9.37 0-9.37 4.28zm0 72.32a12 12 0 0 1-6.83 1.74c-5.44 0-8.67-2.55-8.67-21.18 0-19 5.09-23.49 10.18-23.49 2.42 0 3.82 0.35 5.32 1.5zm24.39-45.09v53.58c9.49 0 9.6 0 9.6-2v-55.9c-7.64 0-9.6 0-9.6 4.32zm5.2-31.13c-3.7 0-5.32 2.78-5.32 7-0.12 5.44 1.74 7.17 4.74 7.29 3.47 0 5.21-2.78 5.33-7.52s-1.17-6.81-4.75-6.81zm24.58 72.4c-4.16 0-6.48 3.13-6.48 6.71 0 4.05 1.62 6.6 6.48 6.6a6.29 6.29 0 0 0 6.48-6.6c0.04-4.05-1.69-6.71-6.48-6.71zm38.85-47.33c-6.24 0-14.57 1.74-19.09 3.82v55.78c9.61 0 9.38 0 9.38-2v-47.18a17.26 17.26 0 0 1 8.67-2.2c6.14 0 6.83 3.47 6.83 12.61v38.77c9.83 0 9.72 0 9.72-2v-36.3c0.04-15.97-1.47-21.3-15.47-21.3zm62.81 19c0-12.38-5-19-14.7-19-10.3 0-20.48 3.59-20.48 33.68 0 23.6 7.75 27.65 18.52 27.65 8.67 0 16-2.78 16-4.39a35.66 35.66 0 0 0-0.81-8.34 28.31 28.31 0 0 1-14.11 3.59c-6.25 0-9.49-2.08-9.84-16.08 5.55 0 16.2-0.23 24.19-1.85a78.15 78.15 0 0 0 1.27-15.28zm-9.66 8.2c-4.05 1.15-11.23 1.38-15.74 1.27 0.69-16.08 5-20.25 9.72-20.25 5 0 6.48 3.47 6.59 11.8a37.09 37.09 0 0 1-0.57 7.18zm40 26.15c-4.16 0-4.16-4.17-4.16-9.14v-34.37h9.95c1.86 0 1.86-0.81 1.86-8.1h-11.83v-20.83c-7.64 0-9.37 0-9.37 3.24v17.59h-5.9c-2 0-2.08 0.93-2.08 8.1h8v33.33c0 10.41 0 18.28 11 18.28 4.51 0 9.95-0.93 9.95-3.71a27.09 27.09 0 0 0-0.69-6.13c-2.46 1.04-3.51 1.74-6.73 1.74zm-396.33-50.08a9.06 9.06 0 0 0-2.19-12.78 9.38 9.38 0 0 0-12.77 2.18c-4.37 5.92-9 10-14.34 12.47a41.92 41.92 0 0 1-14.37 3.11 36.9 36.9 0 0 1-13.71-3.11c-5.58-2.5-10.29-6.55-14.29-12.47a9.184 9.184 0 1 0-15 10.6c9 13.09 24.94 19.63 26.81 20.25-7.17 5.3-15 12.47-18.39 22.13a44.69 44.69 0 0 0 0 31.17 40.86 40.86 0 0 0 19.63 21.82c10 5 22.44 5 33.66 0 11.85-5.3 19.33-15 20.57-25.87 1.25-11.53-4.36-21.82-14-26.18-10-4.37-21.2-1.25-29 8.1a9.104 9.104 0 1 0 14.34 11.22c2.18-2.8 4.67-3.74 7.17-2.8 1.87 0.93 3.74 3.42 3.43 7.79s-4.06 8.41-10 11.22c-6.23 2.8-13.09 2.8-17.76 0.31a23.16 23.16 0 0 1-10.91-12.16 25.25 25.25 0 0 1 0-18.07c2.18-5.92 7.48-11.22 17.14-17.14 4-2.5 8.42-5 12.47-7.17-0.28 0.31 22.16-11.83 31.51-24.62zm-43.95-46.75a21.19 21.19 0 1 0 21.19 21.19 21.21 21.21 0 0 0-21.19-21.19zm0 27.42a6.23 6.23 0 1 1 6.28-6.23 6.24 6.24 0 0 1-6.28 6.23z"/></svg>
