<?xml version="1.0" encoding="UTF-8"?>
<svg width="22.522" height="36.451" version="1.1" viewBox="0 0 90.127 36.451" xmlns="http://www.w3.org/2000/svg"><path d="m88.399-7.9594c2.989-4.119 1.9998-9.8912-2.19-12.78-4.1555-2.8015-9.7792-1.8414-12.77 2.18-4.37 5.92-9 10-14.34 12.47-4.5694 1.8751-9.4342 2.928-14.37 3.11-4.7271-0.14849-9.3815-1.2043-13.71-3.11-5.58-2.5-10.29-6.55-14.29-12.47-2.9096-4.1912-8.6777-5.2073-12.844-2.2628-4.1667 2.9445-5.1348 8.7208-2.1556 12.863 9 13.09 24.94 19.63 26.81 20.25-7.17 5.3-15 12.47-18.39 22.13-3.7408 10.053-3.7408 21.117 0 31.17 3.6151 9.4535 10.61 17.229 19.63 21.82 10 5 22.44 5 33.66 0 11.85-5.3 19.33-15 20.57-25.87 1.25-11.53-4.36-21.82-14-26.18-10-4.37-21.2-1.25-29 8.1-3.1272 3.9584-2.4394 9.705 1.5337 12.814s9.7163 2.3939 12.806-1.5936c2.18-2.8 4.67-3.74 7.17-2.8 1.87 0.93 3.74 3.42 3.43 7.79s-4.06 8.41-10 11.22c-6.23 2.8-13.09 2.8-17.76 0.31-4.993-2.5936-8.8711-6.916-10.91-12.16-2.2291-5.8171-2.2291-12.253 0-18.07 2.18-5.92 7.48-11.22 17.14-17.14 4-2.5 8.42-5 12.47-7.17-0.28 0.31 22.16-11.83 31.51-24.62zm-43.95-46.75c-18.88 0-28.331 22.825-14.983 36.173 13.348 13.348 36.173 3.8968 36.173-14.983-0.011-11.698-9.4917-21.179-21.19-21.19zm0 27.42c-5.5384-0.04445-8.269-6.7522-4.3374-10.652 3.9316-3.9002 10.617-1.1162 10.617 4.4224-5e-3 3.458-2.822 6.2522-6.28 6.23z" fill="#6640fe" stroke-width="1.0004"/></svg>
